<svg width="36" height="36" viewBox="0 0 36 36" fill="none" xmlns="http://www.w3.org/2000/svg">
<g clip-path="url(#clip0_20_43)">
<circle cx="18" cy="18" r="18" fill="#6D6D6D"/>
<path d="M15.8596 22.7505C15.7674 21.5515 15.7674 20.3526 15.6751 19.0614C15.6751 18.4158 15.3985 17.9546 14.6606 17.9546C14.1995 17.9546 13.7384 18.0468 13.6461 17.4013C13.5539 16.5712 13.3694 15.6489 13.6461 14.8189C13.6461 14.7267 14.015 14.5422 14.1995 14.5422C15.5829 14.8189 15.8596 14.0811 15.8596 12.9743C15.8596 10.023 18.3498 8.45516 21.5777 8.63962C22.5 8.73184 22.5 9.46967 22.5 10.1153C22.4078 10.7609 22.7767 11.6831 21.5777 11.6831C20.5632 11.5909 19.8254 11.9598 19.8254 13.1588C19.8254 13.9888 19.9176 14.6344 20.9321 14.7267C22.4078 14.8189 22.1311 15.8334 22.1311 16.8479C22.2233 17.9546 21.6699 18.3235 20.6554 18.3235C19.6409 18.3235 19.4565 18.8769 19.4565 19.7992C19.4565 21.8282 19.4565 23.765 19.3643 25.794C19.272 27.0852 18.9953 27.1774 17.243 27.0852C16.0441 27.0852 15.8596 26.5318 15.9518 25.5173C15.7674 24.6873 15.7674 23.765 15.8596 22.7505Z" fill="white"/>
</g>
<defs>
<clipPath id="clip0_20_43">
<rect width="36" height="36" fill="white"/>
</clipPath>
</defs>
</svg>
