<svg width="36" height="36" viewBox="0 0 36 36" fill="none" xmlns="http://www.w3.org/2000/svg">
<g clip-path="url(#clip0_20_38)">
<circle cx="18" cy="18" r="18" fill="#6D6D6D"/>
<path d="M17.4977 26.6384C15.9173 26.6384 14.3369 26.733 12.8495 26.6384C10.7114 26.4492 9.87473 25.6922 9.50288 23.4213C9.03807 20.772 8.85215 18.2173 9.13104 15.568C9.224 14.6218 9.31696 13.5809 9.50288 12.6347C9.78177 10.6477 10.6184 9.79616 12.5707 9.32307C13.4073 9.13383 14.151 9.0392 14.9877 9.13382C16.754 9.22844 18.5203 9.22843 20.2866 9.03919C21.1232 8.94457 21.8669 9.0392 22.7036 9.13382C24.2839 9.32306 25.3995 10.1746 25.5854 11.7832C26.1432 15.7572 26.608 19.7312 25.8643 23.7052C25.4925 25.5976 24.6558 26.3545 22.7965 26.733C21.1232 26.8276 19.3569 26.733 17.4977 26.6384ZM17.8695 13.9594C15.7314 13.8648 13.8721 15.4733 13.6862 17.4603C13.5003 19.9204 14.9877 21.529 17.4977 21.7182C19.4499 21.8128 21.3092 20.1097 21.4951 17.9334C21.681 15.9464 20.0077 14.054 17.8695 13.9594ZM23.6332 12.4455C23.5402 11.8778 23.2614 11.4993 22.6106 11.4993C21.8669 11.4993 21.4951 11.9724 21.4951 12.6347C21.4951 13.2971 21.8669 13.7702 22.6106 13.7702C23.3543 13.6755 23.6332 13.2024 23.6332 12.4455Z" fill="white"/>
</g>
<defs>
<clipPath id="clip0_20_38">
<rect width="36" height="36" fill="white"/>
</clipPath>
</defs>
</svg>
