<svg width="36" height="36" viewBox="0 0 36 36" fill="none" xmlns="http://www.w3.org/2000/svg">
<g clip-path="url(#clip0_20_53)">
<circle cx="18" cy="18" r="18" fill="#6D6D6D"/>
<path d="M11.8832 19.8584C11.3287 19.304 10.7743 18.7495 10.3307 18.1951C9.77625 17.4188 8.66733 16.6426 10.2198 15.6445C10.6634 15.3119 10.3307 14.6465 10.2198 14.2029C9.88714 13.2049 9.77625 12.2069 9.77625 10.6544C11.2178 12.7614 12.6594 13.9812 14.7664 14.5356C15.4317 14.7574 16.0971 14.7574 16.8733 14.8683C18.204 14.9792 18.7585 14.3138 18.8694 12.9831C19.2021 9.54546 21.0872 8.43654 24.0813 10.2108C25.1902 10.8762 25.6338 9.87814 26.5209 9.76725C26.8536 10.6544 27.4081 11.5415 26.5209 12.5395C26.0774 12.9831 26.1883 13.6485 26.1883 14.3138C26.0774 19.5258 22.8615 23.8505 17.8714 25.403C16.3189 25.9575 14.6555 26.2902 12.8812 26.2902C11.4396 26.1793 10.1089 25.9575 9 24.5159C10.4416 24.2941 12.105 25.0704 13.103 23.407C12.4377 22.409 10.6634 22.0763 10.5525 20.4129C10.7743 19.8584 11.5505 20.4129 11.8832 19.8584Z" fill="white"/>
</g>
<defs>
<clipPath id="clip0_20_53">
<rect width="36" height="36" fill="white"/>
</clipPath>
</defs>
</svg>
