<svg width="36" height="36" viewBox="0 0 36 36" fill="none" xmlns="http://www.w3.org/2000/svg">
<g clip-path="url(#clip0_20_48)">
<circle cx="18" cy="18" r="18" fill="#6D6D6D"/>
<path d="M18.7075 24.2394C16.2188 24.5599 14.2486 24.2394 12.2784 24.0257C10.3083 23.812 9.68609 23.1709 9.58239 21.034C9.4787 19.1107 9.375 17.0806 9.375 15.1574C9.375 12.6999 10.2046 11.8451 12.5895 11.5246C16.5299 10.9903 20.4703 11.3108 24.4107 11.8451C25.5513 11.9519 26.2772 12.4862 26.4846 13.6615C27.1067 16.2258 27.1067 18.897 26.7957 21.5682C26.5883 23.0641 25.4476 23.812 23.9959 24.0257C22.2331 24.3463 20.2629 24.3462 18.7075 24.2394ZM16.2188 21.2477C18.189 20.7134 19.8481 19.645 21.4036 18.1491C19.7444 16.8669 18.0853 16.0121 16.0114 15.0505C16.0114 17.2943 15.8041 19.2176 16.2188 21.2477Z" fill="white"/>
</g>
<defs>
<clipPath id="clip0_20_48">
<rect width="36" height="36" fill="white"/>
</clipPath>
</defs>
</svg>
